<?xml version="1.0" standalone="no"?>
<!DOCTYPE svg PUBLIC "-//W3C//DTD SVG 20010904//EN"
 "http://www.w3.org/TR/2001/REC-SVG-20010904/DTD/svg10.dtd">
<svg version="1.0" xmlns="http://www.w3.org/2000/svg"
 width="400.000000pt" height="400.000000pt" viewBox="0 0 400.000000 400.000000"
 preserveAspectRatio="xMidYMid meet">

<g transform="translate(0.000000,400.000000) scale(0.100000,-0.100000)"
fill="#000000" stroke="none">
<path d="M1882 3929 c-19 -7 -22 -14 -17 -41 6 -41 34 -404 42 -553 6 -113 17
-162 26 -115 3 14 15 167 27 340 12 173 23 322 25 330 3 8 1 20 -3 26 -9 16
-72 23 -100 13z"/>
<path d="M1523 3840 c-24 -11 -43 -22 -43 -25 0 -6 309 -627 316 -634 2 -2 7
-2 10 2 10 10 -216 677 -229 676 -7 0 -31 -9 -54 -19z"/>
<path d="M2226 3743 c-20 -65 -68 -213 -107 -330 -68 -210 -78 -246 -60 -227
13 13 311 610 311 623 0 12 -71 51 -93 51 -8 0 -27 -45 -51 -117z"/>
<path d="M1192 3617 l-43 -43 271 -232 c149 -128 275 -232 281 -232 6 0 -6 20
-27 44 -22 25 -123 143 -225 263 -102 120 -192 224 -201 230 -12 10 -22 5 -56
-30z"/>
<path d="M2529 3558 c-48 -57 -152 -178 -233 -270 -80 -92 -146 -170 -146
-173 0 -17 34 9 177 133 87 75 206 177 266 226 59 49 107 95 107 102 0 9 -73
84 -83 84 -1 0 -41 -46 -88 -102z"/>
<path d="M970 3288 c-11 -24 -20 -48 -20 -55 0 -7 126 -53 298 -108 163 -53
314 -103 335 -111 44 -16 47 -17 47 -5 0 8 -617 321 -633 321 -4 0 -17 -19
-27 -42z"/>
<path d="M2535 3173 c-170 -85 -312 -157 -314 -159 -26 -24 70 4 519 153 144
47 160 54 160 66 0 24 -33 97 -44 96 -6 0 -150 -70 -321 -156z"/>
<path d="M1835 3091 c-72 -32 -135 -122 -135 -193 0 -29 -16 -29 -92 -4 -157
53 -394 86 -614 86 -172 0 -155 58 -152 -522 l3 -487 230 -4 c169 -3 244 -8
283 -20 56 -16 155 -62 212 -97 21 -14 -2 15 -60 72 -124 122 -144 130 -370
136 -91 2 -170 8 -176 13 -12 10 -7 729 6 742 11 13 190 -38 277 -78 228 -105
391 -269 498 -499 74 -160 114 -302 145 -522 22 -155 25 -204 11 -204 -6 0
-31 19 -58 41 -73 64 -173 127 -234 148 -88 32 -205 41 -497 41 l-274 0 5
-262 c3 -189 9 -285 21 -342 36 -176 116 -362 219 -515 69 -103 209 -246 315
-321 111 -79 294 -171 423 -211 117 -37 124 -37 303 33 438 170 740 511 852
960 21 88 27 140 35 366 6 145 8 269 5 277 -4 13 -48 15 -278 15 -289 0 -409
-10 -493 -39 -58 -21 -170 -92 -238 -151 -63 -56 -70 -53 -62 28 56 609 265
976 656 1156 84 39 263 90 285 82 12 -4 14 -64 14 -369 0 -269 -3 -366 -12
-375 -8 -8 -57 -12 -153 -12 -228 0 -285 -22 -420 -161 -44 -45 -69 -76 -55
-67 14 8 49 30 78 48 29 18 88 44 130 58 71 24 94 26 308 30 l231 4 7 464 c8
504 6 528 -41 541 -46 11 -364 -6 -488 -26 -66 -11 -158 -32 -205 -46 -122
-38 -124 -38 -130 10 -22 147 -182 237 -315 176z m163 -81 c46 -28 72 -76 72
-133 0 -42 -5 -53 -38 -89 -34 -36 -45 -42 -93 -45 -45 -4 -60 -1 -89 19 -65
44 -86 120 -52 188 37 74 131 102 200 60z m-658 -115 c207 -31 380 -92 534
-186 50 -31 51 -31 81 -14 102 59 200 108 260 130 146 53 424 96 605 94 l95
-1 -105 -22 c-135 -29 -166 -39 -275 -93 -283 -140 -515 -411 -583 -681 -10
-40 -22 -74 -27 -75 -4 -1 -16 30 -25 68 -43 177 -138 333 -293 482 -174 167
-348 258 -582 303 l-100 20 155 -5 c85 -2 202 -11 260 -20z m230 -1311 c87
-27 200 -91 290 -163 34 -28 68 -47 74 -44 6 4 38 28 71 53 90 71 196 129 277
155 65 20 103 23 329 30 207 5 258 4 265 -6 17 -28 6 -310 -16 -424 -79 -406
-317 -709 -706 -902 -174 -87 -210 -98 -262 -84 -64 17 -257 110 -343 166
-307 199 -501 492 -564 854 -16 87 -21 382 -7 395 4 4 122 5 262 1 228 -7 263
-10 330 -31z"/>
<path d="M1897 1272 c-22 -24 -21 -45 1 -65 24 -22 45 -21 65 1 21 23 22 46 1
66 -21 21 -47 20 -67 -2z"/>
<path d="M1789 1188 l-40 -62 -77 -1 c-86 -1 -124 -16 -166 -65 -47 -57 -35
-142 35 -242 19 -26 19 -26 -11 -83 -37 -70 -39 -98 -8 -93 16 2 30 18 45 51
13 26 27 47 33 47 5 0 29 -19 54 -42 32 -32 47 -56 55 -90 19 -81 19 -81 -45
-73 -53 6 -84 -3 -84 -26 0 -12 69 -29 121 -29 44 0 47 -1 65 -42 26 -58 92
-123 133 -131 76 -15 151 34 201 133 18 36 24 40 58 40 39 0 110 14 119 24 3
3 0 13 -8 22 -11 13 -24 15 -66 10 -28 -3 -54 -2 -57 3 -3 4 0 34 7 66 10 49
18 62 58 96 26 21 49 39 53 39 3 0 17 -22 31 -50 18 -35 31 -50 45 -50 28 0
25 28 -10 95 l-30 57 28 41 c59 89 69 159 29 217 -37 56 -80 75 -167 74 l-76
0 -39 60 c-41 63 -68 80 -79 50 -4 -12 4 -33 25 -61 17 -24 29 -50 26 -57 -3
-6 -31 -20 -63 -30 -57 -16 -61 -16 -114 3 -30 10 -56 24 -58 30 -2 6 10 30
28 54 19 27 28 50 24 60 -12 31 -34 17 -75 -45z m-67 -123 c3 -3 -2 -34 -10
-70 -13 -54 -23 -72 -65 -112 l-48 -48 -24 29 c-32 39 -51 110 -39 144 12 36
67 62 130 62 28 0 53 -2 56 -5z m553 -10 c41 -17 59 -54 50 -105 -8 -43 -45
-110 -60 -110 -6 0 -31 21 -56 48 -35 36 -48 59 -57 100 -18 82 -18 82 38 82
28 0 66 -7 85 -15z m-451 -5 c14 -5 26 -13 26 -17 0 -9 -81 -55 -86 -50 -7 6
17 77 26 77 5 0 20 -4 34 -10z m271 -37 c3 -14 4 -27 1 -30 -2 -2 -23 8 -46
22 -42 27 -43 39 -5 47 26 6 41 -7 50 -39z m-80 -48 c44 -25 86 -53 93 -62 7
-11 12 -51 12 -109 0 -89 -1 -93 -29 -116 -15 -14 -57 -39 -92 -58 l-64 -33
-74 37 c-109 55 -121 70 -121 154 0 121 1 123 98 181 47 28 88 51 92 51 3 0
41 -20 85 -45z m-329 -213 c-7 -7 -46 28 -46 41 0 6 10 22 23 35 l22 24 3 -47
c2 -26 1 -50 -2 -53z m534 40 c0 -17 -28 -52 -42 -52 -4 0 -8 26 -8 57 l0 56
25 -23 c14 -13 25 -30 25 -38z m-405 -203 c39 -23 37 -32 -8 -43 -23 -5 -29
-3 -37 19 -20 52 -11 56 45 24z m285 14 c-1 -38 -14 -53 -46 -53 -44 0 -45 21
-1 43 37 18 47 20 47 10z m-108 -91 c32 -10 60 -21 64 -25 10 -10 -42 -92 -70
-111 -56 -36 -119 -13 -162 60 -26 45 -25 64 4 65 9 0 33 6 52 13 47 18 47 18
112 -2z"/>
<path d="M1845 920 c-3 -6 -4 -19 0 -30 8 -26 -10 -57 -37 -66 -13 -4 -26 -11
-30 -17 -10 -16 2 -37 22 -37 26 0 43 -26 37 -58 -10 -52 10 -62 56 -30 14 11
24 9 55 -8 46 -26 62 -21 62 18 0 22 10 39 36 63 l36 33 -36 37 c-28 28 -35
41 -30 60 7 30 -19 44 -47 27 -26 -17 -64 -15 -79 3 -14 17 -36 20 -45 5z
m125 -90 c24 -24 25 -38 4 -68 -29 -42 -104 -17 -104 35 0 20 38 53 60 53 11
0 29 -9 40 -20z"/>
<path d="M1515 606 c-13 -19 -14 -29 -6 -45 25 -45 91 -33 91 17 0 54 -56 72
-85 28z"/>
<path d="M2272 618 c-27 -27 -3 -88 34 -88 15 0 54 35 54 48 0 4 -7 18 -16 30
-17 24 -53 29 -72 10z"/>
</g>
</svg>
